<svg xmlns="http://www.w3.org/2000/svg" width="980.984" height="320.232" viewBox="0 0 980.984 320.232"><defs><style>.a{fill:none;stroke:#435054;stroke-linecap:round;stroke-width:3px;stroke-dasharray:10;}.b{fill:#fbe4c2;}.c{fill:#fbeec0;}.d{fill:#d6e7ed;}.e{fill:#435054;}.f{fill:#ffe0e8;}.g{fill:#fff;}</style></defs><g transform="translate(-140 -203.467)"><path class="a" d="M1005.565,277.842c66.956-39.253,227.709-75.05,284.651-74.833,61.245.233,128.78,19.684,137.543,26.183,17.751,13.163,26.744,40.956,0,60.906-27.126,20.235-59.8,4.4-72.861-8.608-7.212-7.18-9.161-22.275,0-37.05,7.2-11.619,22.535-22.682,42.031-32.194,7.657-3.736,53.125-17.308,94.7-5.534,60.99,17.274,111.585,65.47,187.27,77.84,170.682,27.9,174.3-22.656,250.1,35.4,21.2,27.632,18.3,60.211-16,73.022s-30.542-14.525-101.968,22.419c-62.134,32.138-132.483,91.679-223.074,99.554s-125.488,2.934-145.234,0" transform="translate(-823 3)"/><g transform="translate(140 236.214)"><path class="b" d="M41.99,99.894A17.581,17.581,0,1,1,24.409,82.313,17.581,17.581,0,0,1,41.99,99.894Zm0,0" transform="translate(-5.475 -65.69)"/><path class="c" d="M18.934,113.356A18.934,18.934,0,1,1,37.868,94.422,18.955,18.955,0,0,1,18.934,113.356Zm0-35.163A16.229,16.229,0,1,0,35.163,94.422,16.247,16.247,0,0,0,18.934,78.193Zm0,0" transform="translate(0 -60.218)"/><path class="d" d="M47.4,171.171q-1.445-.111-2.919-.112A37.793,37.793,0,0,0,6.828,208.927H82.135A37.909,37.909,0,0,0,60.311,174.56" transform="translate(-5.475 -136.854)"/><path class="e" d="M76.66,204.806H1.353A1.352,1.352,0,0,1,0,203.454,39.422,39.422,0,0,1,4.782,184.63a38.994,38.994,0,0,1,34.224-20.4c1.01,0,2.027.039,3.023.116a1.353,1.353,0,0,1,1.244,1.453,1.337,1.337,0,0,1-1.453,1.244c-.927-.072-1.874-.108-2.814-.108a36.3,36.3,0,0,0-31.85,18.986A36.677,36.677,0,0,0,2.73,202.1H75.282a36.556,36.556,0,0,0-21.018-31.789,1.352,1.352,0,1,1,1.143-2.451,39.266,39.266,0,0,1,22.6,35.592,1.351,1.351,0,0,1-1.352,1.353Zm0,0" transform="translate(0 -131.382)"/><path class="f" d="M145.767,24.2c0,9.378-16.982,27.318-16.982,27.318S111.8,33.578,111.8,24.2a16.981,16.981,0,0,1,33.962,0Zm0,0" transform="translate(-89.655 -5.473)"/><path class="e" d="M123.314,47.4a1.357,1.357,0,0,1-.983-.423c-.708-.748-17.35-18.443-17.35-28.247a18.334,18.334,0,0,1,36.668,0c0,9.8-16.644,27.5-17.352,28.247a1.354,1.354,0,0,1-.983.423Zm0-44.3a15.646,15.646,0,0,0-15.628,15.629c0,6.783,10.491,19.695,15.628,25.328,5.136-5.635,15.63-18.549,15.63-25.328A15.647,15.647,0,0,0,123.314,3.1Zm0,0" transform="translate(-84.183)"/><path class="g" d="M172.77,52.609a8.121,8.121,0,1,1-8.122-8.121A8.122,8.122,0,0,1,172.77,52.609Zm0,0" transform="translate(-125.518 -35.359)"/><path class="e" d="M159.173,56.608a9.474,9.474,0,1,1,9.474-9.474A9.485,9.485,0,0,1,159.173,56.608Zm0-16.243a6.769,6.769,0,1,0,6.769,6.769A6.777,6.777,0,0,0,159.173,40.365Zm0,0" transform="translate(-120.043 -29.884)"/><path class="g" d="M223.12,252.98a3.381,3.381,0,0,0,0,6.762h2.705a3.381,3.381,0,1,1,0,6.762H215.682a4.057,4.057,0,1,0,0,8.115H246.36a37.833,37.833,0,0,0-6.755-21.639Zm0,0" transform="translate(-169.7 -202.546)"/><path class="e" d="M240.889,270.5H210.211a5.41,5.41,0,0,1,0-10.819h10.144a2.028,2.028,0,0,0,0-4.057h-2.705a4.734,4.734,0,0,1,0-9.467h16.484a1.35,1.35,0,0,1,1.111.581,39.113,39.113,0,0,1,7,22.41,1.351,1.351,0,0,1-1.352,1.352Zm-30.678-8.114a2.7,2.7,0,0,0,0,5.409h29.3a36.392,36.392,0,0,0-6.095-18.934H217.649a2.029,2.029,0,0,0,0,4.057h2.705a4.734,4.734,0,0,1,0,9.467Zm0,0" transform="translate(-164.229 -197.071)"/><path class="g" d="M20.352,266.234a3.852,3.852,0,0,1,3.851-3.852h5.684a3.988,3.988,0,0,0,3.988-3.988V255.62h3.381a4.734,4.734,0,0,0,0-9.467H31.344a4.23,4.23,0,0,0-4.23,4.23v1.18H11.143a37.844,37.844,0,0,0-4.315,17.581H20.352Zm0,0" transform="translate(-5.475 -197.072)"/><path class="e" d="M14.877,265.023H1.353A1.352,1.352,0,0,1,0,263.671a38.942,38.942,0,0,1,4.469-18.208,1.356,1.356,0,0,1,1.2-.726H20.289a5.588,5.588,0,0,1,5.58-5.409h5.912a6.086,6.086,0,1,1,0,12.171H29.753v1.422a5.347,5.347,0,0,1-5.341,5.34H18.727a2.5,2.5,0,0,0-2.5,2.5v2.91a1.351,1.351,0,0,1-1.352,1.352Zm-12.148-2.7h10.8v-1.558a5.21,5.21,0,0,1,5.2-5.2h5.684a2.639,2.639,0,0,0,2.637-2.636v-2.774a1.351,1.351,0,0,1,1.352-1.353h3.381a3.381,3.381,0,0,0,0-6.762H25.869a2.881,2.881,0,0,0-2.878,2.877v1.18a1.352,1.352,0,0,1-1.353,1.352H6.5a36.151,36.151,0,0,0-3.769,14.877Zm0,0" transform="translate(0 -191.599)"/></g></g></svg>